<?xml version="1.0" encoding="UTF-8"?>
<svg width="50px" height="50px" viewBox="0 0 50 50" version="1.1" xmlns="http://www.w3.org/2000/svg" xmlns:xlink="http://www.w3.org/1999/xlink">
    <!-- Generator: Sketch 58 (84663) - https://sketch.com -->
    <title>Shape</title>
    <desc>Created with Sketch.</desc>
    <defs>
        <linearGradient x1="45.0673136%" y1="83.4160484%" x2="46.1596188%" y2="0%" id="linearGradient-1">
            <stop stop-color="#FFFFFF" offset="0%"></stop>
            <stop stop-color="#BDBDBD" offset="100%"></stop>
        </linearGradient>
    </defs>
    <g id="Page-1" stroke="none" stroke-width="1" fill="none" fill-rule="evenodd">
        <polygon id="Rectangle" fill="url(#linearGradient-1)" points="32.7263713 1.24608147 48.501442 17.4076205 31.5936413 36.3125532 34.0317498 40.3918109 47.9354604 48.7329384 24.3831915 47.6601064 8.83414894 48.7329384 2.3943617 47.6601064 7.56478723 43.1210638 7.56478723 40.9440426 1.18728266 32.4749283 26.4575053 3.51381935"></polygon>
        <path d="M48.7954255,47.6601064 L47.461383,47.6601064 C47.0854255,46.6164894 46.2011702,45.8062766 45.0454255,45.523617 C44.1367021,42.7731915 41.5347872,40.8515957 38.5294681,40.8515957 C36.4926596,40.8925532 34.6287234,40.0470213 33.3743617,38.5344681 C33.0373404,38.1282979 32.6723404,37.7540426 32.2929787,37.3985106 L48.4630851,21.2284043 C48.906383,20.7851064 48.906383,20.0670213 48.4630851,19.6238298 L48.1306383,19.291383 L49.5978723,17.8241489 C50.0411702,17.3808511 50.0411702,16.662766 49.5978723,16.2195745 L33.7111702,0.332978723 C33.2678723,-0.110319149 32.5497872,-0.110319149 32.1065957,0.332978723 L30.6393617,1.80021277 L30.3069149,1.46776596 C29.863617,1.02446809 29.1455319,1.02446809 28.7023404,1.46776596 L1.46829787,28.7018085 C1.025,29.1451064 1.025,29.8631915 1.46829787,30.306383 L1.80074468,30.6388298 L0.332446809,32.1071277 C-0.110851064,32.5504255 -0.110851064,33.2685106 0.332446809,33.7117021 L7.56478723,40.9440426 C7.23457447,41.657234 6.98159574,42.4138298 6.87606383,43.2218085 C4.62585106,43.6520213 2.85244681,45.4194681 2.3943617,47.66 L1.13585106,47.66 C0.508617021,47.66 0.00106382979,48.1675532 0.00106382979,48.7947872 C0.00106382979,49.4220213 0.508617021,49.9295745 1.13585106,49.9295745 L48.7954255,49.9295745 C49.4226596,49.9295745 49.9303457,49.4220213 49.9303457,48.7947872 C49.9303457,48.1676596 49.4226596,47.6601064 48.7954255,47.6601064 Z M2.7393617,32.9094681 L4.20765957,31.4411702 C4.65095745,30.9978723 4.65095745,30.2797872 4.20765957,29.8365957 L3.87521277,29.5041489 L29.5046809,3.87468085 L29.8371277,4.20712766 C30.2804255,4.65042553 30.9985106,4.65042553 31.4417021,4.20712766 L32.9089362,2.73989362 L47.1908511,17.0218085 L45.723617,18.4890426 C45.2803191,18.9323404 45.2803191,19.6504255 45.723617,20.093617 L46.0560638,20.4260638 L30.486383,35.9958511 C28.5181915,34.7381915 26.2228723,34.0430851 23.8309574,34.0430851 C21.1703191,34.0430851 18.6304255,34.898617 16.4495745,36.5220213 C15.9995745,36.4151064 15.5874468,36.3895745 15.1711702,36.3642553 L15.3347872,36.2006383 C15.516383,36.2475532 15.6917021,36.3125532 15.887766,36.3125532 C17.1388298,36.3125532 18.157234,35.2941489 18.157234,34.0430851 C18.157234,33.8471277 18.092234,33.6717021 18.0453191,33.4901064 L20.4267021,31.1087234 L20.7591489,31.4411702 C20.9807447,31.662766 21.2711702,31.773617 21.5614894,31.773617 C21.8518085,31.773617 22.1421277,31.662766 22.3638298,31.4411702 C22.8071277,30.9978723 22.8071277,30.2797872 22.3638298,29.8365957 L22.031383,29.5041489 L24.412766,27.122766 C24.5943617,27.1696809 24.7696809,27.2346809 24.9657447,27.2346809 C26.2168085,27.2346809 27.2352128,26.2162766 27.2352128,24.9652128 C27.2352128,24.7692553 27.1702128,24.5938298 27.1232979,24.412234 L29.5046809,22.0308511 L29.8371277,22.3632979 C30.0587234,22.5848936 30.3491489,22.6957447 30.6394681,22.6957447 C30.9297872,22.6957447 31.2201064,22.5848936 31.4418085,22.3632979 C31.8851064,21.92 31.8851064,21.2019149 31.4418085,20.7587234 L31.1093617,20.4262766 L33.4907447,18.0448936 C33.6723404,18.0918085 33.8476596,18.1568085 34.0437234,18.1568085 C35.2947872,18.1568085 36.3131915,17.1384043 36.3131915,15.8873404 C36.3131915,15.691383 36.2481915,15.5159574 36.2012766,15.3343617 L38.2480851,13.2875532 C38.691383,12.8442553 38.691383,12.1261702 38.2480851,11.6829787 C37.8047872,11.2396809 37.0867021,11.2396809 36.6435106,11.6829787 L34.5967021,13.7297872 C34.4151064,13.6828723 34.2397872,13.6178723 34.0437234,13.6178723 C32.7926596,13.6178723 31.7742553,14.6362766 31.7742553,15.8873404 C31.7742553,16.0832979 31.8392553,16.2587234 31.8861702,16.4403191 L29.5047872,18.8217021 L29.1723404,18.4892553 C28.7290426,18.0459574 28.0109574,18.0459574 27.567766,18.4892553 C27.1244681,18.9325532 27.1244681,19.6506383 27.567766,20.0938298 L27.9002128,20.4262766 L25.5188298,22.8076596 C25.337234,22.7607447 25.1619149,22.6957447 24.9658511,22.6957447 C23.7147872,22.6957447 22.696383,23.7141489 22.696383,24.9652128 C22.696383,25.1611702 22.761383,25.3365957 22.8082979,25.5181915 L20.4269149,27.8995745 L20.0944681,27.5671277 C19.6511702,27.1238298 18.9330851,27.1238298 18.4898936,27.5671277 C18.0465957,28.0104255 18.0465957,28.7285106 18.4898936,29.1717021 L18.8223404,29.5041489 L16.4409574,31.8855319 C16.2593617,31.838617 16.0840426,31.773617 15.8879787,31.773617 C14.6369149,31.773617 13.6185106,32.7920213 13.6185106,34.0430851 C13.6185106,34.2390426 13.6835106,34.4144681 13.7304255,34.5960638 L11.0787234,37.247766 C10.2259574,37.6968085 9.46893617,38.2894681 8.83414894,39.0039362 L2.7393617,32.9094681 Z M18.1571277,47.6601064 C18.1571277,47.0332979 17.6490426,46.5253191 17.0223404,46.5253191 C16.3956383,46.5253191 15.8875532,47.0332979 15.8875532,47.6601064 L4.74914894,47.6601064 C5.21914894,46.3421277 6.46691489,45.3906383 7.9443617,45.3906383 C8.57159574,45.3906383 9.07914894,44.8830851 9.07914894,44.2558511 C9.07914894,41.1275532 11.6245745,38.5821277 14.7528723,38.5821277 C15.2459574,38.5821277 15.7624468,38.6674468 16.3752128,38.851383 C16.7364894,38.9588298 17.1265957,38.8812766 17.4179787,38.6441489 C19.2885106,37.1181915 21.5071277,36.3125532 23.8308511,36.3125532 C26.8494681,36.3125532 29.6907447,37.6511702 31.6278723,39.9838298 C33.3078723,42.0095745 35.733617,43.1210638 38.5006383,43.1210638 C40.733617,43.1576596 42.606383,44.6281915 43.0319149,46.7691489 C43.1295745,47.2585106 43.5359574,47.6044681 44.017234,47.6601064 L18.1571277,47.6601064 L18.1571277,47.6601064 Z" id="Shape" fill="#000000" fill-rule="nonzero"></path>
        <circle id="Oval" fill="#000000" fill-rule="nonzero" cx="12.4828723" cy="44.2558511" r="1.13478723"></circle>
        <circle id="Oval" fill="#000000" fill-rule="nonzero" cx="19.291383" cy="44.2558511" r="1.13478723"></circle>
    </g>
</svg>